<?xml version="1.0" encoding="utf-8"?>
<!-- Generator: Adobe Illustrator 25.2.0, SVG Export Plug-In . SVG Version: 6.00 Build 0)  -->
<svg version="1.1" id="Layer_1" xmlns="http://www.w3.org/2000/svg" xmlns:xlink="http://www.w3.org/1999/xlink" x="0px" y="0px"
	 viewBox="0 0 100 125" style="enable-background:new 0 0 100 125;" xml:space="preserve">
<path d="M20,56.3c-0.5-1.9-0.8-3.8-0.8-5.8c0-0.6-0.4-1-1-1s-1,0.4-1,1c0,2.1,0.3,4.2,0.8,6.3c0.1,0.4,0.5,0.7,1,0.7
	c0.1,0,0.2,0,0.3,0C19.8,57.4,20.1,56.8,20,56.3z"/>
<path d="M51.1,77.2c-12.9,0-24.4-6.4-29.4-16.4c-0.2-0.5-0.9-0.7-1.3-0.4c-0.5,0.2-0.7,0.8-0.4,1.3c5.3,10.6,17.6,17.5,31.2,17.5
	c0.6,0,1-0.4,1-1S51.7,77.2,51.1,77.2z"/>
<path d="M83.6,11.2L69.1,25.8H39.7c-0.2-3.7-3.3-6.6-7-6.6s-6.8,2.9-7,6.6H15.5c-3,0-5.5,2.5-5.5,5.5c0,2.3,1.4,4.3,3.5,5.1
	C11.2,41,10,45.9,10,51c0,8.5,3.3,16.3,8.8,22.5l-3.6,9.5c-1,2.6,0.4,5.6,3,6.6c0.6,0.2,1.2,0.3,1.8,0.3c0.7,0,1.4-0.2,2.1-0.5
	c1.2-0.6,2.2-1.6,2.7-2.9l2.3-6.1C33.7,84.6,41.5,87,50,87c8.5,0,16.3-2.4,22.8-6.5l2.3,6.1c0.8,2.1,2.7,3.3,4.8,3.3
	c0.6,0,1.2-0.1,1.8-0.3c2.6-1,4-3.9,3-6.6l-3.6-9.5c5.5-6.2,8.8-14,8.8-22.5c0-5.1-1.2-10-3.5-14.6c2-0.8,3.5-2.8,3.5-5.1
	c0-3-2.5-5.5-5.5-5.5h-4.4l9-9.2c1.5-1.5,1.5-4,0-5.5C87.6,9.6,85.1,9.6,83.6,11.2z M32.7,21.2c2.6,0,4.8,2,5,4.6h-10
	C28,23.3,30.1,21.2,32.7,21.2z M23,86c-0.6,1.6-2.4,2.4-4,1.8c-1.6-0.6-2.4-2.4-1.8-4l3.2-8.6c1.6,1.5,3.3,3,5.1,4.2L23,86z
	 M82.8,83.8c0.6,1.6-0.2,3.4-1.8,4c-1.6,0.6-3.4-0.2-4-1.8l-2.4-6.6c1.8-1.3,3.5-2.7,5.1-4.2L82.8,83.8z M88,51
	c0,11.1-6,21-15.2,27.2c0,0-0.1,0.1-0.1,0.1C66.3,82.5,58.5,85,50,85c-8.5,0-16.3-2.5-22.6-6.7c0,0-0.1,0-0.1-0.1
	C18,72,12,62.2,12,51c0-5,1.2-9.7,3.5-14.2c0,0,0,0,0,0h69c0,0,0,0,0,0C86.8,41.3,88,46.1,88,51z M88,31.3c0,1.9-1.6,3.5-3.5,3.5
	h-69c-1.9,0-3.5-1.6-3.5-3.5s1.6-3.5,3.5-3.5h69C86.4,27.8,88,29.4,88,31.3z M87.7,15.2L77.4,25.8c0,0,0,0,0,0.1h-5.4l13.2-13.3
	c0.7-0.7,1.9-0.8,2.7,0C88.5,13.3,88.5,14.5,87.7,15.2z"/>
<path d="M13.2,15.4c0,3,2.4,5.4,5.4,5.4s5.4-2.4,5.4-5.4S21.7,10,18.7,10S13.2,12.4,13.2,15.4z M22.1,15.4c0,1.9-1.5,3.4-3.4,3.4
	s-3.4-1.5-3.4-3.4s1.5-3.4,3.4-3.4S22.1,13.5,22.1,15.4z"/>
<path d="M42.4,17.8c0,3,2.4,5.4,5.4,5.4s5.4-2.4,5.4-5.4s-2.4-5.4-5.4-5.4C44.9,12.4,42.4,14.8,42.4,17.8z M51.3,17.8
	c0,1.9-1.5,3.4-3.4,3.4s-3.4-1.5-3.4-3.4s1.5-3.4,3.4-3.4S51.3,15.9,51.3,17.8z"/>
</svg>
