<?xml version="1.0" encoding="utf-8"?>
<!-- Generator: Adobe Illustrator 25.2.0, SVG Export Plug-In . SVG Version: 6.00 Build 0)  -->
<svg version="1.1" id="Layer_1" xmlns="http://www.w3.org/2000/svg" xmlns:xlink="http://www.w3.org/1999/xlink" x="0px" y="0px"
	 viewBox="0 0 100 125" style="enable-background:new 0 0 100 125;" xml:space="preserve">
<style type="text/css">
	.st0{fill-rule:evenodd;clip-rule:evenodd;}
</style>
<g>
	<path class="st0" d="M60.9,71c3-1.1,4.8-2.9,5.4-5.8c3.4,1.6,6.4,3.7,9.1,6.1c5.7,5.1,10.1,11.1,13.2,18c0.4,0.9,0.3,1.6-0.3,2.4
		c-0.6,0.8-1.3,0.9-2.2,0.8c-8.6-1.3-14.9-6.1-19.9-12.9C64.3,77,62.7,74,60.9,71z"/>
	<path class="st0" d="M57,60.2c-0.5,0.5-1,1.1-1.6,1.7c-6.4-5.1-11.2-11.2-13-19.3c-0.3-1.4-0.8-2.5-1.7-3.6
		c-7-8.2-14.6-15.9-23.3-22.4c-0.7-0.5-1.6-0.8-2.4-1c-3.9-0.6-5.2-2.2-4.9-6.1C10.4,7,11,6.6,13.3,8.1c2.8,1.8,5.5,3.7,7.9,6
		c6.9,6.7,13.6,13.7,20.3,20.6c2.5,2.6,4.1,5.9,4.7,9.4c0.6,3.3,2.1,6.2,4.2,8.7C52.5,55.3,54.7,57.6,57,60.2z"/>
	<path class="st0" d="M60,69.3c-0.5-0.7-1-1.4-1.5-2c1.4-1.7,2.8-3.3,4.1-4.9C65,64.6,64,67.6,60,69.3z"/>
	<path class="st0" d="M57.3,65.8c-0.7-0.8-1.2-1.4-1.5-1.7c1.4-1.5,2.7-3,4.1-4.5c0.3,0.3,0.8,0.7,1.5,1.4
		C60,62.6,58.7,64.1,57.3,65.8z"/>
</g>
</svg>
