<?xml version="1.0" encoding="utf-8"?>
<!-- Generator: Adobe Illustrator 25.2.0, SVG Export Plug-In . SVG Version: 6.00 Build 0)  -->
<svg version="1.1" id="Layer_1" xmlns="http://www.w3.org/2000/svg" xmlns:xlink="http://www.w3.org/1999/xlink" x="0px" y="0px"
	 viewBox="0 0 100 125" style="enable-background:new 0 0 100 125;" xml:space="preserve">
<style type="text/css">
	.st0{fill:none;}
</style>
<path d="M85.7,24.7c0.9-5.6,0-8.4,0-8.4S82.9,5.7,70.3,5.7S53.1,22.9,53.1,22.9c-0.2,0.7-5.8,4.4-7.2,4.9c-1.4,0.5-8.4,8.8-8.4,8.8
	c-0.9,0-1.4-0.5-1.4-0.5c-0.9,0.5-2.8,4.2-2.8,4.2c-4.2,2.3-7,7-7,7c2.8-0.5,2.8,0.5,2.8,0.5c-3.7,1.9-5.6,11.6-5.6,12.1
	s-4.4,8.6-5.4,10s-0.5,1.9-0.5,1.9s0,0.5,0.5,0.5s-0.5,0.9-0.5,0.9c-2.3,0.9-3.3,5.6-3.7,6.5s0,5.6,0,5.1c0-0.3,1.9-2.4,3.3-3.6l0,0
	c0,0,0,0,0,0c0.6-0.6,1.1-1,1.3-1c0.1,0,0.2,0.1,0.2,0.3C26.6,77,38.6,71,46.5,63.7c7-6.4,12.8-13.9,16.5-19.2
	C58.2,51.9,50.5,63,46.5,66.7c-4.2,3.9-18.6,10.1-27.6,13.8c0.1,0.8-0.2,2.4-0.2,2.4c0.5,1.4,2.3,0.5,2.3,0.5s2.3-3.3,1.4-0.5
	c-0.9,2.8,0.9,2.8,0.9,2.8s3.7-3.3,3.7-2.3c0,0.9-0.9,4.7-0.9,4.7v7.4c0,0,2.3,0.5,2.3,0s2.8-3.3,2.8-3.3c0.9,0,0.9,0.5,0.9,0.5
	c0.5-0.5,1.9-0.5,1.9-0.5c0,0.9,1.4,0.5,1.4,0.5c2.8-0.9,7-17.2,7-17.2l6.5-5.1c0,0,0.5,0.5,0,0.9c-0.5,0.5,0,3.7,0,5.1
	c0,0.7,0.9,1,1.8,1c0.8,0,1.6-0.3,2.2-0.9c2.6-2.6,5.4-1,5.8-0.6c0.5,0.5,1.4,0,1.4,0s0.5-0.5,1.4-1.4c0.9-0.9,3,0.7,3.5-0.1
	c0.3-0.4,1-2,0.7-3.6c-0.2-0.9-2.3-2-3.4-2.5c-0.5-0.2-0.7-0.7-0.7-1.2v-4.7l5.1-3.3c0,0,3.7-0.9,5.6-2.8s2.8-5.1,3.7-6
	c0.9-0.9,1.4,0.9,2.3,0c0.9-0.9,2.8-8.4,2.8-8.4s4.2-6,5.1-8.8C87.1,30.3,85.7,24.7,85.7,24.7z M65.6,18c-1.8,0-3.3-0.9-3.3-2
	c0-1.1,1.5-2,3.3-2c0.1,0,0.3,0,0.4,0c-0.6,0.1-1.1,0.7-1.1,1.3c0,0.7,0.6,1.3,1.3,1.3c0.7,0,1.3-0.6,1.3-1.3c0-0.5-0.3-0.9-0.7-1.2
	c1.2,0.3,2,1,2,1.8C68.9,17.1,67.4,18,65.6,18z M71.2,21.8c0,0-1.1-1.1-1.1-2.2c0-1.1,1.1-1.1,1.1-1.1s1.1,0,1.1,1.1
	C72.3,20.7,71.2,21.8,71.2,21.8z M76.6,18c-1.8,0-3.3-0.9-3.3-2c0-0.8,0.8-1.5,2-1.8c-0.4,0.2-0.7,0.7-0.7,1.2
	c0,0.7,0.6,1.3,1.3,1.3c0.7,0,1.3-0.6,1.3-1.3c0-0.6-0.5-1.2-1.1-1.3c0.1,0,0.3,0,0.4,0c1.8,0,3.3,0.9,3.3,2S78.4,18,76.6,18z"/>
<rect x="7.5" y="113.1" class="st0" width="69.4" height="8.5"/>
</svg>
