<?xml version="1.0" encoding="utf-8"?>
<!-- Generator: Adobe Illustrator 25.2.0, SVG Export Plug-In . SVG Version: 6.00 Build 0)  -->
<svg version="1.1" id="Layer_1" xmlns="http://www.w3.org/2000/svg" xmlns:xlink="http://www.w3.org/1999/xlink" x="0px" y="0px"
	 viewBox="0 0 100 125" style="enable-background:new 0 0 100 125;" xml:space="preserve">
<style type="text/css">
	.st0{fill-rule:evenodd;clip-rule:evenodd;}
</style>
<g>
	<path class="st0" d="M36.1,67.9c-0.5-0.3-0.9-0.5-1.2-0.7c-1-0.7-1.4-2.2-0.5-3c1.1-1,0.7-2,0.4-3.1c-3.9-12.1-12.3-19.4-24.3-22.9
		C10,38.1,9.5,38,8.9,37.8c8.9-8.1,7.6-17,2.2-26.5c1.3,0.4,2.3,0.8,3.3,1.2c6.8,2.7,12.9,6.2,17.7,11.9c6.3,7.4,8.4,16.2,7.6,25.7
		c-0.4,3.9-1.4,7.7-2.3,11.6c-0.3,1.2-0.2,2,0.9,2.5c9.8-7.4,15.3-7.5,24.1-0.2c1.2-0.4,1.2-1.1,0.9-2.2c-2.4-7.5-3.3-15.1-1.8-22.9
		c2-9.9,7.7-17.2,16.3-22.2c3.4-2,7.1-3.4,10.7-5c0.3-0.1,0.6-0.1,1-0.2c-5.3,9.3-6.6,18.2,2.3,26.3c-0.6,0.2-1,0.3-1.4,0.4
		c-12.2,3.5-20.5,11-24.4,23.2c-0.3,1-0.6,1.8,0.4,2.7c1.1,1.1,0.5,2.4-1.4,3.9c2,4.2,2.1,8.5,0.3,12.8c-1.3,3-3.3,5.5-6,7.3
		c-5.4,3.6-12.5,3.5-17.8-0.2c-3.2-2.2-5.2-5.3-6.4-9C34,75.1,34.6,71.5,36.1,67.9z"/>
</g>
</svg>
